<?xml version="1.0" standalone="no"?>
<!DOCTYPE svg PUBLIC "-//W3C//DTD SVG 20010904//EN"
 "http://www.w3.org/TR/2001/REC-SVG-20010904/DTD/svg10.dtd">
<svg version="1.0" xmlns="http://www.w3.org/2000/svg"
 width="97.000000pt" height="97.000000pt" viewBox="0 0 97.000000 97.000000"
 preserveAspectRatio="xMidYMid meet">
<metadata>
Created by potrace 1.11, written by Peter Selinger 2001-2013
</metadata>
<g transform="translate(0.000000,97.000000) scale(0.100000,-0.100000)"
fill="#000000" stroke="none">
<path d="M0 485 l0 -485 480 0 480 0 0 485 0 485 -480 0 -480 0 0 -485z m718
18 c-3 -199 -4 -209 -26 -241 -22 -31 -68 -62 -92 -62 -6 0 -16 12 -22 26 -11
23 -9 28 18 49 l29 23 3 206 3 206 45 0 45 0 -3 -207z m-232 181 c79 -38 87
-148 14 -200 l-29 -20 49 -85 c27 -46 50 -88 50 -92 0 -4 -21 -7 -47 -5 l-48
3 -43 83 c-36 69 -47 82 -67 82 -25 0 -25 -1 -25 -86 l0 -85 -42 3 -43 3 -3
208 -2 207 101 0 c73 0 111 -5 135 -16z"/>
<path d="M340 574 l0 -67 47 6 c50 5 73 25 73 64 0 36 -34 63 -80 63 l-40 0 0
-66z"/>
</g>
</svg>
